<?xml version="1.0" standalone="no"?>
<!DOCTYPE svg PUBLIC "-//W3C//DTD SVG 20010904//EN"
 "http://www.w3.org/TR/2001/REC-SVG-20010904/DTD/svg10.dtd">
<svg version="1.0" xmlns="http://www.w3.org/2000/svg"
 width="260.000000pt" height="260.000000pt" viewBox="0 0 260.000000 260.000000"
 preserveAspectRatio="xMidYMid meet">
<metadata>
Created by potrace 1.11, written by Peter Selinger 2001-2013
</metadata>
<g transform="translate(0.000000,260.000000) scale(0.100000,-0.100000)"
fill="#000000" stroke="none">
<path d="M540 1300 l0 -460 90 0 90 0 0 195 0 195 190 0 190 0 0 80 0 80 -190
0 -190 0 0 105 0 105 220 0 220 0 0 80 0 80 -310 0 -310 0 0 -460z"/>
<path d="M1442 1559 l3 -81 212 -91 c116 -50 210 -94 208 -98 -3 -3 -96 -46
-207 -94 -112 -48 -207 -91 -211 -95 -4 -4 -7 -41 -5 -82 l3 -76 310 137 310
136 3 75 3 75 -258 112 c-142 62 -284 123 -316 137 l-58 26 3 -81z"/>
</g>
</svg>
